<?xml version="1.0" encoding="utf-8"?>
<!-- Generator: Adobe Illustrator 17.1.0, SVG Export Plug-In . SVG Version: 6.00 Build 0)  -->
<!DOCTYPE svg PUBLIC "-//W3C//DTD SVG 1.1//EN" "http://www.w3.org/Graphics/SVG/1.1/DTD/svg11.dtd">
<svg version="1.1" id="Layer_1" xmlns="http://www.w3.org/2000/svg" xmlns:xlink="http://www.w3.org/1999/xlink" x="0px" y="0px"
	 viewBox="0 0 612 792" enable-background="new 0 0 612 792" xml:space="preserve">
<path fill="#333333" d="M345,436.1c0,1.2,1,2.2,2.2,2.2c1.2,0,2.2-1,2.2-2.2c0-1.2-1-2.2-2.2-2.2C346,433.9,345,434.9,345,436.1z
	 M369.1,436.1c0,1.2,1,2.2,2.2,2.2c1.2,0,2.2-1,2.2-2.2c0-1.2-1-2.2-2.2-2.2C370.1,433.9,369.1,434.9,369.1,436.1z M356.1,433.7
	c0,1.8,1.4,3.2,3.2,3.2c1.8,0,3.2-1.4,3.2-3.2c0-1.8-1.4-3.2-3.2-3.2C357.5,430.5,356.1,431.9,356.1,433.7z M347.9,457.9v13.9
	c0,2.1,1.4,3.5,3.5,3.5c1.9,0,3.5-1.4,3.5-3.5V458l0.6,0v13.9c0,2.1,1.4,3.5,3.5,3.5c1.9,0,3.5-1.4,3.5-3.5V458l0.6,0v13.8
	c0,2.1,1.4,3.5,3.5,3.5c1.9,0,3.5-1.4,3.5-3.5v-13.8l2.6,0l6.2,10.7c1.1,1.8,3,2.4,4.9,1.3c1.7-1,2.4-2.9,1.3-4.8l-4.2-7.3
	c2.2,0,4-0.1,5.3-0.1c0.6-2.2,0.9-4.6,0.9-7c0-11.5-7-21.3-16.9-25.5V424c0-2.1-1.6-3.5-3.5-3.5c-2,0-3.3,1.2-3.5,3
	c-0.2,0-0.4-0.1-0.6-0.1c-0.3-1.8-1.7-2.9-3.5-2.9c-2,0-3.3,1.2-3.5,3c-0.2,0-0.4,0.1-0.6,0.1c-0.2-1.9-1.7-3.1-3.5-3.1
	c-2.1,0-3.5,1.4-3.5,3.5v1.7c-9.6,4.3-16.4,14-16.4,25.3c0,2.3,0.3,4.6,0.8,6.7l5.5,0.1l-4.4,7.5c-1.1,1.8-0.4,3.8,1.3,4.8
	c1.9,1,3.8,0.5,4.9-1.3l6.3-10.9L347.9,457.9z M342.4,449.2c0-2,1.6-3.6,3.6-3.6c0,1.9,1.5,3.4,3.4,3.4c1.8,0,3.3-1.1,3.4-2.8h0
	c0.2,1.7,1.6,2.8,3.4,2.8s3.3-1.1,3.4-2.8h0c0.2,1.7,1.6,2.8,3.4,2.8c1.8,0,3.3-1.1,3.4-2.8h0c0.2,1.7,1.6,2.8,3.4,2.8
	c1.8,0,3.3-1.4,3.4-3.2c1.4,0.5,2.4,1.8,2.4,3.4c0,2-1.6,3.6-3.6,3.6H346C344,452.8,342.4,451.2,342.4,449.2z M344,436.8
	c0-2,1.6-3.6,3.6-3.6s3.6,1.6,3.6,3.6c0,2-1.6,3.6-3.6,3.6S344,438.8,344,436.8z M367.4,436.8c0-2,1.6-3.6,3.6-3.6
	c2,0,3.6,1.6,3.6,3.6c0,2-1.6,3.6-3.6,3.6C369,440.4,367.4,438.8,367.4,436.8z M353.6,434.7c0-3.1,2.5-5.7,5.7-5.7s5.7,2.5,5.7,5.7
	c0,3.1-2.5,5.7-5.7,5.7S353.6,437.9,353.6,434.7z"/>
<path fill="#333333" d="M420.2,416.5C420.2,416.5,420.3,416.5,420.2,416.5c1.8,1.5,3.7,2.5,5.7,3.1c1-1.7,2.8-2.5,4.7-2.5
	c1.9,0,3.7,0.9,4.7,2.6c2.1-0.6,4.1-1.6,5.8-3.1c0,0,0.1,0,0.1-0.1c-2.3-6.4-6.2-12.5-10.5-12.5C426.4,404,422.6,410.1,420.2,416.5z
	 M444.4,453l0,12.4c0,0,7.8,2.7,3,11.4c0,0,1.9,6,4.6,3C454.6,476.8,463.5,463,444.4,453z M416.5,453c-19.1,10-10.2,23.8-7.5,26.8
	c2.7,3,4.6-3,4.6-3c-4.8-8.7,3-11.4,3-11.4L416.5,453z M435.2,465.7l-8.6,0l0.5,14.9c0,0,3.6,4.1,7.3,0L435.2,465.7z M417.8,427.2
	L417.8,427.2l0,0.5l0,32.3l5.4-3.9l2.4-28.7l0.5,0.8l-1.9,29l-6.5,7.6l0,0.3l2,0l6-7.6l1.6-29.2l1.9,1.1l-0.8,29.2l-4.2,6.5l12.8,0
	l-4.2-6.5l-0.8-29.2l1.9-1.1l1.6,29.2l6,7.6l2,0l0-0.3l-6.4-7.6l-1.9-29l0.5-0.8l2.4,28.7l5.4,3.9l0-32.3l0-0.5h0
	c-0.1-1.7-0.4-3.9-1-6.2c-2.1,1.5-4.5,2.5-6.9,3.1c-0.7,2.4-2.9,3.5-5.1,3.5c-2.2,0-4.4-1.2-5.1-3.6c-2.3-0.6-4.6-1.6-6.6-3.1
	C418.2,423.4,417.9,425.5,417.8,427.2z M442.2,420.7c-0.3-1.2-0.7-2.3-1.1-3.5c-1.5,1.2-3.3,2.1-5.1,2.8l-1,0
	c-0.9-1.6-2.6-2.7-4.5-2.7c-1.9,0-3.6,1.1-4.5,2.7l-0.7,0c-1.8-0.6-3.5-1.5-5.1-2.8c-0.4,1.1-0.8,2.3-1.1,3.5
	c1.8,1.2,3.7,2.2,5.8,2.8l0.7,0.3c0.6,2.2,2.6,3.8,4.9,3.8c2.4,0,4.4-1.6,4.9-3.8l0.3-0.1C438.1,423,440.2,422,442.2,420.7z
	 M430.6,425.9l-1-2.1l-2.3-0.3l1.7-1.6l-0.4-2.3l2.1,1.1l2.1-1.1l-0.4,2.3l1.7,1.6l-2.3,0.3L430.6,425.9z"/>
</svg>
